<?xml version="1.0" encoding="iso-8859-1"?>
<!-- Generator: Adobe Illustrator 19.0.0, SVG Export Plug-In . SVG Version: 6.00 Build 0)  -->
<svg version="1.1" id="Capa_1" xmlns="http://www.w3.org/2000/svg" xmlns:xlink="http://www.w3.org/1999/xlink" x="0px" y="0px"
	 viewBox="0 0 512 512" style="enable-background:new 0 0 512 512;" xml:space="preserve">
<path style="fill:#303C42;" d="M318.682,191.457L300.048,42.388c5.21-0.706,9.285-4.983,9.285-10.388
	c0-4.122-2.405-7.59-5.824-9.366l4.033-6.051c2.188-3.271,2.385-7.479,0.531-10.958C306.219,2.167,302.604,0,298.667,0h-85.333
	c-3.938,0-7.552,2.167-9.406,5.625c-1.854,3.479-1.656,7.688,0.531,10.958l4.033,6.051c-3.419,1.776-5.824,5.243-5.824,9.366
	c0,5.405,4.076,9.682,9.285,10.388l-18.634,149.069c-26.527,19.423-43.984,50.556-43.984,85.876v192
	C149.333,492.854,168.469,512,192,512h128c23.531,0,42.667-19.146,42.667-42.667v-192
	C362.667,242.013,345.21,210.88,318.682,191.457z"/>
<path style="fill:#7E872A;" d="M233.417,42.667h45.167l16.975,135.798c-12.259-4.924-25.561-7.798-39.559-7.798
	c-13.997,0-27.299,2.874-39.559,7.798L233.417,42.667z"/>
<path style="opacity:0.1;enable-background:new    ;" d="M295.559,178.465L278.583,42.667h-10.405l8.779,130.21
	C283.371,174.206,289.598,176.07,295.559,178.465z"/>
<path style="opacity:0.2;fill:#FFFFFF;enable-background:new    ;" d="M243.822,42.667h-10.405l-16.975,135.798
	c5.961-2.395,12.188-4.259,18.602-5.589L243.822,42.667z"/>
<path style="fill:#7E872A;" d="M341.333,469.333c0,11.771-9.573,21.333-21.333,21.333H192c-11.76,0-21.333-9.563-21.333-21.333v-192
	C170.667,230.271,208.948,192,256,192s85.333,38.271,85.333,85.333V469.333z"/>
<g>
	<path style="opacity:0.05;fill:#FFFFFF;enable-background:new    ;" d="M277.333,465.397V237.979c0-15.97-1.711-30.872-4.51-44.277
		C267.379,192.608,261.76,192,256,192c-14.723,0-28.374,4.087-40.475,10.677c-1.415,10.982-2.191,22.875-2.191,35.302v227.418
		c0,13.943,3.889,25.27,8.667,25.27h44.667C272.547,490.667,277.333,479.34,277.333,465.397z"/>
	<path style="opacity:0.1;fill:#FFFFFF;enable-background:new    ;" d="M298.667,465.397V237.979c0-12.547-0.98-24.538-2.754-35.608
		C283.947,195.97,270.494,192,256,192c-6.074,0-11.982,0.688-17.701,1.9c-2.254,13.355-3.633,28.189-3.633,44.079v227.418
		c0,13.943,3.889,25.27,8.667,25.27H288C293.88,490.667,298.667,479.34,298.667,465.397z"/>
	<path style="opacity:0.2;fill:#FFFFFF;enable-background:new    ;" d="M170.667,277.333v192c0,11.771,9.573,21.333,21.333,21.333
		h16c-8.82,0-16-9.563-16-21.333v-192C192,230.271,220.711,192,256,192C208.948,192,170.667,230.271,170.667,277.333z"/>
</g>
<path style="opacity:0.1;enable-background:new    ;" d="M256,192c35.289,0,64,38.271,64,85.333v192c0,11.771-7.18,21.333-16,21.333
	h16c11.76,0,21.333-9.563,21.333-21.333v-192C341.333,230.271,303.052,192,256,192z"/>
<path style="fill:#303C42;" d="M273.5,320c4.479,0,8.969-1.708,12.375-5.125c1.135-1.125,4.146-4.146,11.958-22.75
	c1.677-4,0.771-8.604-2.292-11.667c-3.083-3.083-7.677-4-11.677-2.292c-8.711,3.66-13.918,6.238-17.198,8.092v-6.911
	c4.059-3.208,6.833-7.954,6.833-13.514c0-1.604,0-5.875-7.625-24.542c-3.271-8-16.479-8-19.75,0
	c-7.625,18.667-7.625,22.938-7.625,24.542c0,5.56,2.775,10.306,6.833,13.514v6.911c-3.28-1.854-8.487-4.432-17.198-8.092
	c-4-1.688-8.604-0.771-11.677,2.292c-3.063,3.063-3.969,7.667-2.292,11.667c7.813,18.604,10.823,21.625,11.958,22.75
	c3.406,3.417,7.896,5.125,12.375,5.125c2.333,0,4.648-0.516,6.833-1.443v10.368c-3.28-1.854-8.487-4.432-17.198-8.092
	c-4-1.667-8.604-0.792-11.677,2.292c-3.063,3.063-3.969,7.667-2.292,11.667c7.813,18.604,10.823,21.625,11.958,22.75
	c3.406,3.417,7.896,5.125,12.375,5.125c2.333,0,4.648-0.516,6.833-1.443v10.368c-3.28-1.854-8.487-4.432-17.198-8.092
	c-4-1.667-8.604-0.792-11.677,2.292c-3.063,3.063-3.969,7.667-2.292,11.667c7.813,18.604,10.823,21.625,11.958,22.75
	c3.406,3.417,7.896,5.125,12.375,5.125c2.333,0,4.648-0.516,6.833-1.443v33.443c0,5.896,4.771,10.667,10.667,10.667
	c5.896,0,10.667-4.771,10.667-10.667v-33.443c2.185,0.927,4.5,1.443,6.833,1.443c4.479,0,8.969-1.708,12.375-5.125
	c1.135-1.125,4.146-4.146,11.958-22.75c1.677-4,0.771-8.604-2.292-11.667c-3.083-3.083-7.677-3.979-11.677-2.292
	c-8.711,3.66-13.918,6.238-17.198,8.092v-10.368c2.185,0.927,4.5,1.443,6.833,1.443c4.479,0,8.969-1.708,12.375-5.125
	c1.135-1.125,4.146-4.146,11.958-22.75c1.677-4,0.771-8.604-2.292-11.667c-3.083-3.083-7.677-3.979-11.677-2.292
	c-8.711,3.66-13.918,6.238-17.198,8.092v-10.368C268.852,319.484,271.167,320,273.5,320z"/>
<linearGradient id="SVGID_1_" gradientUnits="userSpaceOnUse" x1="-41.4259" y1="635.923" x2="-26.816" y2="629.1061" gradientTransform="matrix(21.3333 0 0 -21.3333 998.4985 13763.0791)">
	<stop  offset="0" style="stop-color:#FFFFFF;stop-opacity:0.2"/>
	<stop  offset="1" style="stop-color:#FFFFFF;stop-opacity:0"/>
</linearGradient>
<path style="fill:url(#SVGID_1_);" d="M318.682,191.457L300.048,42.388c5.21-0.706,9.285-4.983,9.285-10.388
	c0-4.122-2.405-7.59-5.824-9.366l4.033-6.051c2.188-3.271,2.385-7.479,0.531-10.958C306.219,2.167,302.604,0,298.667,0h-85.333
	c-3.938,0-7.552,2.167-9.406,5.625c-1.854,3.479-1.656,7.688,0.531,10.958l4.033,6.051c-3.419,1.776-5.824,5.243-5.824,9.366
	c0,5.405,4.076,9.682,9.285,10.388l-18.634,149.069c-26.527,19.423-43.984,50.556-43.984,85.876v192
	C149.333,492.854,168.469,512,192,512h128c23.531,0,42.667-19.146,42.667-42.667v-192
	C362.667,242.013,345.21,210.88,318.682,191.457z"/>
<g>
</g>
<g>
</g>
<g>
</g>
<g>
</g>
<g>
</g>
<g>
</g>
<g>
</g>
<g>
</g>
<g>
</g>
<g>
</g>
<g>
</g>
<g>
</g>
<g>
</g>
<g>
</g>
<g>
</g>
</svg>
