<?xml version="1.0" encoding="iso-8859-1"?>
<!-- Generator: Adobe Illustrator 19.0.0, SVG Export Plug-In . SVG Version: 6.00 Build 0)  -->
<svg version="1.1" id="Layer_1" xmlns="http://www.w3.org/2000/svg" xmlns:xlink="http://www.w3.org/1999/xlink" x="0px" y="0px"
	 viewBox="0 0 499.2 499.2" style="enable-background:new 0 0 499.2 499.2;" xml:space="preserve">
<g>
	<path style="fill:#5E0404;" d="M149.2,164c0,0-32,59.2,42.4,78.4s-10.4,40-12.8,82.4c-2.4,42.4-16,3.2-26.4,22.4
		c-10.4,19.2,9.6,17.6-24,24s-65.6,24-65.6,24l202.4,2.4c0,0-17.6-23.2,1.6-40s-10.4-36-10.4-36s-4,32,29.6,44.8s60.8-12,73.6,11.2
		c12.8,23.2,7.2,20.8,7.2,20.8l16.8,8.8l-19.2-52.8l48.8,44.8l16.8-4c0,0-41.6-17.6-56-49.6s-35.2,8.8-66.4-5.6
		c-32-15.2-27.2-44.8,4-61.6c32-16.8-27.2-32-12.8-36c15.2-4,69.6,2.4,69.6-33.6s36-44,36-44H378c0,0-23.2,12.8-26.4,34.4
		c-3.2,20.8-30.4-32.8-30.4-32.8l1.6,7.2l7.2,24.8l-26.4-8l-2.4,1.6l23.2,10.4c0,0,10.4,10.4-0.8,9.6c-12-0.8-38.4,3.2-58.4-8.8
		s-12.8,30.4-12.8,30.4s-12.8-24.8-36.8-24.8s-64.8,0.8-48-36.8s43.2-10.4,43.2-10.4v-0.8c0,0-23.2-25.6-29.6-15.2
		c-6.4,10.4-19.2,8.8-19.2,8.8l-0.8-27.2l-8,25.6L149.2,164z"/>
	<path style="fill:#5E0404;" d="M150,212c0,0-35.2,5.6-55.2-21.6c-20.8-26.4-35.2-3.2-35.2-3.2s4-16,18.4-16s18.4,9.6,30.4,16
		s8.8-19.2,8.8-19.2s8.8,8.8,4.8,20.8s14.4,13.6,24.8,2.4L150,212z"/>
</g>
<polygon style="fill:#D10D0D;" points="321.2,499.2 156.4,499.2 164.4,475.2 313.2,475.2 "/>
<path style="fill:#5E0404;" d="M236.4,483.2c103.2,0,186.4-32,186.4-80H50C50,451.2,134,483.2,236.4,483.2z"/>
<g>
	<rect x="39.6" y="387.2" style="fill:#D10D0D;" width="400" height="24"/>
	<polygon style="fill:#D10D0D;" points="120.4,438.4 107.6,454.4 94.8,438.4 107.6,422.4 	"/>
	<polygon style="fill:#D10D0D;" points="171.6,438.4 159.6,454.4 146.8,438.4 159.6,422.4 	"/>
	<polygon style="fill:#D10D0D;" points="223.6,438.4 210.8,454.4 198,438.4 210.8,422.4 	"/>
	<polygon style="fill:#D10D0D;" points="274.8,438.4 262.8,454.4 250,438.4 262.8,422.4 	"/>
	<polygon style="fill:#D10D0D;" points="326.8,438.4 314,454.4 302,438.4 314,422.4 	"/>
	<polygon style="fill:#D10D0D;" points="378,438.4 366,454.4 353.2,438.4 366,422.4 	"/>
</g>
<g>
	<path style="fill:#FF7C10;" d="M231.6,123.2c0,12.8-10.4,24-23.2,24h-83.2c-12.8,0-23.2-11.2-23.2-24l0,0c0-12.8,10.4-24,23.2-24
		h82.4C221.2,99.2,231.6,110.4,231.6,123.2L231.6,123.2z"/>
	<path style="fill:#FF7C10;" d="M415.6,63.2c0,10.4-8.8,20-19.2,20h-68c-10.4,0-19.2-9.6-19.2-20l0,0c0-10.4,8.8-20,19.2-20h68
		C406.8,43.2,415.6,52.8,415.6,63.2L415.6,63.2z"/>
	<path style="fill:#FF7C10;" d="M371.6,87.2c0,10.4-8.8,20-19.2,20h-68c-10.4,0-19.2-9.6-19.2-20l0,0c0-10.4,8.8-20,19.2-20h67.2
		C362.8,67.2,371.6,76.8,371.6,87.2L371.6,87.2z"/>
	<path style="fill:#FF7C10;" d="M375.6,124c0,12.8-10.4,23.2-23.2,23.2h-81.6c-12.8,0-23.2-10.4-23.2-23.2v-1.6
		c0-12.8,10.4-23.2,23.2-23.2h81.6c12.8,0,23.2,10.4,23.2,23.2L375.6,124L375.6,124z"/>
	<path style="fill:#FF7C10;" d="M239.6,155.2c0,4.8-3.2,8-8,8h-40c-4.8,0-8-3.2-8-8l0,0c0-4.8,3.2-8,8-8h40
		C236.4,147.2,239.6,150.4,239.6,155.2L239.6,155.2z"/>
	<path style="fill:#FF7C10;" d="M416.4,155.2c0,12.8-10.4,24-23.2,24h-82.4c-12.8,0-23.2-11.2-23.2-24l0,0c0-12.8,10.4-24,23.2-24
		h82.4C406,131.2,416.4,142.4,416.4,155.2L416.4,155.2z"/>
	<path style="fill:#FF7C10;" d="M230,59.2c0,12.8-10.4,24-23.2,24h-82.4c-12.8,0-23.2-11.2-23.2-24l0,0c0-12.8,10.4-24,23.2-24h82.4
		C219.6,35.2,230,46.4,230,59.2L230,59.2z"/>
	<path style="fill:#FF7C10;" d="M447.6,91.2c0,12.8-10.4,24-23.2,24h-83.2c-12.8,0-23.2-11.2-23.2-24l0,0c0-12.8,10.4-24,23.2-24
		h82.4C437.2,67.2,447.6,78.4,447.6,91.2L447.6,91.2z"/>
	<path style="fill:#FF7C10;" d="M191.6,87.2c0,11.2-8.8,20-20,20h-72c-11.2,0-20-8.8-20-20l0,0c0-11.2,8.8-20,20-20h72
		C182.8,67.2,191.6,76,191.6,87.2L191.6,87.2z"/>
	<path style="fill:#FF7C10;" d="M90,119.2c0,3.2-2.4,4-5.6,4H66c-3.2,0-5.6-0.8-5.6-4l0,0c0.8-3.2,3.2-4,5.6-4h18.4
		C87.6,115.2,90,116,90,119.2L90,119.2z"/>
	<path style="fill:#FF7C10;" d="M265.2,31.2c0,3.2-2.4,4-5.6,4h-18.4c-3.2,0-5.6-0.8-5.6-4l0,0c0-3.2,2.4-4,5.6-4h18.4
		C262.8,27.2,265.2,28,265.2,31.2L265.2,31.2z"/>
	<path style="fill:#FF7C10;" d="M233.2,15.2c0,3.2-2.4,4-5.6,4h-18.4c-3.2,0-5.6-0.8-5.6-4l0,0c0-3.2,2.4-4,5.6-4h18.4
		C230.8,11.2,233.2,12,233.2,15.2L233.2,15.2z"/>
	<path style="fill:#FF7C10;" d="M463.6,127.2c0,2.4-1.6,4-4,4h-24c-2.4,0-4-1.6-4-4l0,0c0-2.4,1.6-4,4-4h24
		C462,123.2,463.6,124.8,463.6,127.2L463.6,127.2z"/>
	<path style="fill:#FF7C10;" d="M303.6,47.2c0,2.4-1.6,4-4,4h-24c-2.4,0-4-1.6-4-4l0,0c0-2.4,1.6-4,4-4h24
		C302,43.2,303.6,44.8,303.6,47.2L303.6,47.2z"/>
	<circle style="fill:#FF7C10;" cx="136.4" cy="16" r="7.2"/>
	<circle style="fill:#FF7C10;" cx="172.4" cy="25.6" r="3.2"/>
	<circle style="fill:#FF7C10;" cx="214.8" cy="42.4" r="15.2"/>
	<circle style="fill:#FF7C10;" cx="354.8" cy="39.2" r="36.8"/>
	<circle style="fill:#FF7C10;" cx="418.8" cy="28" r="4.8"/>
	<circle style="fill:#FF7C10;" cx="316.4" cy="59.2" r="32.8"/>
	<circle style="fill:#FF7C10;" cx="66.8" cy="177.6" r="25.6"/>
	<circle style="fill:#FF7C10;" cx="119.6" cy="162.4" r="5.6"/>
	<circle style="fill:#FF7C10;" cx="54" cy="209.6" r="18.4"/>
	<circle style="fill:#FF7C10;" cx="74" cy="196.8" r="17.6"/>
	<circle style="fill:#FF7C10;" cx="89.2" cy="174.4" r="20.8"/>
	<circle style="fill:#FF7C10;" cx="70.8" cy="148.8" r="8.8"/>
	<circle style="fill:#FF7C10;" cx="191.6" cy="80.8" r="21.6"/>
	<path style="fill:#FF7C10;" d="M173.2,39.2c0,21.6-17.6,39.2-39.2,39.2S94.8,60.8,94.8,39.2S112.4,0,134,0
		C155.6,0,173.2,17.6,173.2,39.2z"/>
	<circle style="fill:#FF7C10;" cx="174" cy="27.2" r="18.4"/>
	<circle style="fill:#FF7C10;" cx="76.4" cy="66.4" r="37.6"/>
	<circle style="fill:#FF7C10;" cx="377.2" cy="97.6" r="28"/>
	<circle style="fill:#FF7C10;" cx="425.2" cy="179.2" r="32.8"/>
	<circle style="fill:#FF7C10;" cx="393.2" cy="240.8" r="6.4"/>
	<circle style="fill:#FF7C10;" cx="378" cy="171.2" r="20.8"/>
	<circle style="fill:#FF7C10;" cx="342.8" cy="168.8" r="20.8"/>
	<circle style="fill:#FF7C10;" cx="384.4" cy="216" r="3.2"/>
	<circle style="fill:#FF7C10;" cx="381.2" cy="233.6" r="3.2"/>
	<circle style="fill:#FF7C10;" cx="425.2" cy="214.4" r="19.2"/>
	<circle style="fill:#FF7C10;" cx="90.8" cy="201.6" r="19.2"/>
	<circle style="fill:#FF7C10;" cx="145.2" cy="210.4" r="5.6"/>
	<circle style="fill:#FF7C10;" cx="154.8" cy="231.2" r="24.8"/>
	<circle style="fill:#FF7C10;" cx="182" cy="237.6" r="16.8"/>
</g>
<g>
	<circle style="fill:#FFA912;" cx="74" cy="56" r="12.8"/>
	<circle style="fill:#FFA912;" cx="103.6" cy="56" r="5.6"/>
	<circle style="fill:#FFA912;" cx="125.2" cy="26.4" r="13.6"/>
	<circle style="fill:#FFA912;" cx="154.8" cy="42.4" r="5.6"/>
	<circle style="fill:#FFA912;" cx="297.2" cy="100.8" r="12"/>
	<circle style="fill:#FFA912;" cx="306" cy="64.8" r="2.4"/>
	<circle style="fill:#FFA912;" cx="326" cy="56.8" r="14.4"/>
	<circle style="fill:#FFA912;" cx="349.2" cy="32" r="12.8"/>
	<circle style="fill:#FFA912;" cx="369.2" cy="16" r="3.2"/>
	<circle style="fill:#FFA912;" cx="65.2" cy="174.4" r="8.8"/>
	<circle style="fill:#FFA912;" cx="92.4" cy="168" r="4"/>
	<circle style="fill:#FFA912;" cx="152.4" cy="221.6" r="9.6"/>
	<circle style="fill:#FFA912;" cx="82" cy="78.4" r="6.4"/>
	<circle style="fill:#FFA912;" cx="114.8" cy="88.8" r="7.2"/>
	<circle style="fill:#FFA912;" cx="144.4" cy="115.2" r="15.2"/>
	<circle style="fill:#FFA912;" cx="331.6" cy="138.4" r="14.4"/>
	<circle style="fill:#FFA912;" cx="362" cy="160" r="3.2"/>
	<circle style="fill:#FFA912;" cx="315.6" cy="160.8" r="8"/>
	<circle style="fill:#FFA912;" cx="301.2" cy="133.6" r="7.2"/>
	<circle style="fill:#FFA912;" cx="266.8" cy="119.2" r="8.8"/>
</g>
<g>
	<path style="fill:#821717;" d="M227.6,246.4c0,0,25.6,13.6-7.2,36c-32,22.4-22.4,39.2-27.2,54.4c0,0,13.6-30.4,40-41.6
		c26.4-12,19.2-26.4,19.2-26.4s-4,7.2-8.8,8.8c0,0,11.2-11.2,0.8-20.8S227.6,246.4,227.6,246.4z"/>
	<path style="fill:#821717;" d="M262,258.4c0,0-11.2-52,1.6-48.8c12,3.2,21.6,11.2,27.2,6.4c0,0-4,10.4-12.8,6.4s-9.6-6.4-9.6,0.8
		c0,7.2,0,3.2-5.6,6.4C257.2,234.4,262,258.4,262,258.4z"/>
</g>
<g>
</g>
<g>
</g>
<g>
</g>
<g>
</g>
<g>
</g>
<g>
</g>
<g>
</g>
<g>
</g>
<g>
</g>
<g>
</g>
<g>
</g>
<g>
</g>
<g>
</g>
<g>
</g>
<g>
</g>
</svg>
