<svg height="464pt" viewBox="0 0 464 464" width="464pt" xmlns="http://www.w3.org/2000/svg"><path d="m464 232c0 128.128906-103.871094 232-232 232s-232-103.871094-232-232 103.871094-232 232-232 232 103.871094 232 232zm0 0" fill="#e4e4e2"/><path d="m136 64.503906c-3.652344 0-6.835938-2.472656-7.746094-6.007812s.691406-7.238282 3.890625-9c18.230469-10.007813 37.871094-17.199219 58.253907-21.335938 4.332031-.882812 8.558593 1.910156 9.441406 6.238282.882812 4.332031-1.910156 8.558593-6.238282 9.441406-18.804687 3.816406-36.925781 10.449218-53.746093 19.679687-1.179688.648438-2.507813.988281-3.855469.984375zm0 0" fill="#eee"/><path d="m32 240c-4.417969 0-8-3.582031-8-8-.253906-65.527344 30.625-127.285156 83.199219-166.398438 3.535156-2.652343 8.550781-1.9375 11.199219 1.597657 2.652343 3.535156 1.9375 8.550781-1.597657 11.199219-48.53125 36.109374-77.035156 93.113281-76.800781 153.601562 0 4.417969-3.582031 8-8 8zm0 0" fill="#eee"/><path d="m232 440c-4.417969 0-8-3.582031-8-8s3.582031-8 8-8c105.988281-.125 191.875-86.011719 192-192 0-4.417969 3.582031-8 8-8s8 3.582031 8 8c-.128906 114.820312-93.179688 207.871094-208 208zm0 0" fill="#eee"/><path d="m184 434.199219c-.648438.007812-1.292969-.070313-1.921875-.230469-11.394531-2.808594-22.53125-6.582031-33.285156-11.28125-4.058594-1.769531-5.910157-6.492188-4.140625-10.546875 1.769531-4.054687 6.492187-5.910156 10.546875-4.140625 9.925781 4.324219 20.203125 7.804688 30.710937 10.398438 4 .910156 6.664063 4.695312 6.171875 8.765624-.492187 4.070313-3.984375 7.109376-8.082031 7.035157zm0 0" fill="#eee"/><path d="m108.527344 118.398438c-5.925782 11.121093-10.449219 25.425781-15.664063 34.578124-1.824219 3.019532-4.105469 5.742188-6.757812 8.070313-7.992188 7.546875-13.664063 17.210937-16.363281 27.863281l-.101563.402344c-2.859375 10.371094-2.734375 21.339844.351563 31.648438 1.222656 3.554687 1.902343 7.277343 2.007812 11.039062 0 3.9375-.246094 7.929688-.632812 11.945312-2.511719 25.003907 2.832031 50.171876 15.289062 72 .351562.605469.710938 1.214844 1.070312 1.816407 5.429688 8.855469 12.789063 16.375 21.53125 21.992187 6.140626 3.898438 12.023438 8.203125 17.597657 12.878906 8.28125 7.199219 17.464843 16 27.257812 24 9.699219 7.984376 20.980469 13.820313 33.101563 17.121094 1.730468.46875 3.464844.910156 5.21875 1.335938 13.847656-19.089844-2.914063-27.289063-.433594-56.425782 3.152344-36.550781 38.59375-18.3125 34.320312-86.398437-.640624-9.6875-2.25-19.285156-4.800781-28.648437-4.640625-17.210938-6.894531-19.816407-23.953125-36.527344-20-19.601563-31.199218-8.179688-51.199218-27.777344-19.375-18.976562-7.070313-36.695312-28.351563-50.496094-3.285156 3.054688-6.449219 6.25-9.488281 9.582032zm0 0" fill="#f9f9f9"/><path d="m192 395.199219c77.597656 19.003906 157.847656-19.269531 191.917969-91.53125 34.070312-72.265625 12.539062-158.527344-51.496094-206.300781-64.035156-47.773438-152.855469-43.84375-212.421875 9.402343v121.597657c-.011719 28.566406 7.621094 56.613281 22.113281 81.234374l50.398438 85.597657" fill="#5b3726"/><path d="m120 228.40625c-.003906 28.554688 7.628906 56.585938 22.113281 81.195312l50.398438 85.597657c13.769531-19.199219-2.992188-27.398438-.511719-56.535157 3.152344-36.550781 38.59375-18.3125 34.320312-86.398437-.640624-9.6875-2.25-19.285156-4.800781-28.648437-4.640625-17.210938-6.894531-19.824219-23.953125-36.527344-20-19.601563-31.199218-8.179688-51.199218-27.777344-18.710938-18.335938-7.960938-35.480469-26.398438-49.066406zm0 0" fill="#744630"/><path d="m286.554688 192.484375 21.195312 11.253906c3.902344 2.074219 5.386719 6.917969 3.3125 10.820313l-11.253906 21.195312c-2.074219 3.902344-6.917969 5.386719-10.820313 3.3125l-21.195312-11.253906c-3.902344-2.074219-5.386719-6.917969-3.3125-10.820312l11.253906-21.195313c2.074219-3.902344 6.917969-5.386719 10.820313-3.3125zm0 0" fill="#fd9226"/><path d="m252.960938 306.273438-9.480469 14.871093c-5.382813 8.441407-4.449219 19.441407 2.28125 26.855469l.140625.152344c4.914062 5.414062 12.179687 8.0625 19.425781 7.078125l10.398437-1.40625c11.648438-1.582031 20.042969-11.96875 19.152344-23.6875l-1.039062-13.601563c-.730469-9.527344-7.46875-17.519531-16.734375-19.847656-9.273438-2.335938-19 1.523438-24.144531 9.585938zm0 0" fill="#ea9d2d"/><path d="m204.558594 150.457031 16.90625-5.058593c9.589844-2.871094 16.070312-11.804688 15.824218-21.8125v-.210938c-.183593-7.308594-3.957031-14.0625-10.089843-18.046875l-8.800781-5.71875c-9.84375-6.425781-22.988282-4.054687-29.972657 5.398437l-8.082031 10.992188c-5.675781 7.6875-5.800781 18.144531-.304688 25.960938 5.492188 7.816406 15.371094 11.238281 24.519532 8.496093zm0 0" fill="#fbb540"/><path d="m304 144c0 8.835938-7.164062 16-16 16s-16-7.164062-16-16 7.164062-16 16-16 16 7.164062 16 16zm0 0" fill="#85bc94"/><path d="m360 280c0 8.835938-7.164062 16-16 16s-16-7.164062-16-16 7.164062-16 16-16 16 7.164062 16 16zm0 0" fill="#6b9777"/><path d="m104 200c-3.234375 0-6.152344-1.949219-7.390625-4.9375s-.550781-6.429688 1.734375-8.71875l8-8c3.140625-3.03125 8.128906-2.988281 11.214844.097656 3.085937 3.085938 3.128906 8.074219.097656 11.214844l-8 8c-1.5 1.5-3.535156 2.34375-5.65625 2.34375zm0 0" fill="#d9d9d9"/><path d="m104 248c-3.234375 0-6.152344-1.949219-7.390625-4.9375s-.550781-6.429688 1.734375-8.71875l8-8c3.140625-3.03125 8.128906-2.988281 11.214844.097656 3.085937 3.085938 3.128906 8.074219.097656 11.214844l-8 8c-1.5 1.5-3.535156 2.34375-5.65625 2.34375zm0 0" fill="#d9d9d9"/><path d="m112.183594 303.808594c-1.988282 0-3.90625-.742188-5.375-2.082032l-8.410156-7.605468c-3.269532-2.972656-3.515626-8.035156-.542969-11.304688 2.972656-3.273437 8.03125-3.515625 11.304687-.542968l8.375 7.605468c2.453125 2.222656 3.285156 5.726563 2.089844 8.8125-1.191406 3.089844-4.164062 5.121094-7.472656 5.117188zm0 0" fill="#b9b9b9"/><path d="m144 336h-16c-4.417969 0-8-3.582031-8-8s3.582031-8 8-8h16c4.417969 0 8 3.582031 8 8s-3.582031 8-8 8zm0 0" fill="#d9d9d9"/><path d="m152 312c-3.234375 0-6.152344-1.949219-7.390625-4.9375s-.550781-6.429688 1.734375-8.71875l8-8c3.140625-3.03125 8.128906-2.988281 11.214844.097656 3.085937 3.085938 3.128906 8.074219.097656 11.214844l-8 8c-1.5 1.5-3.535156 2.34375-5.65625 2.34375zm0 0" fill="#482b1e"/><path d="m144 272c-2.121094 0-4.15625-.84375-5.65625-2.34375l-8-8c-3.03125-3.140625-2.988281-8.128906.097656-11.214844 3.085938-3.085937 8.074219-3.128906 11.214844-.097656l8 8c2.285156 2.289062 2.972656 5.730469 1.734375 8.71875s-4.15625 4.9375-7.390625 4.9375zm0 0" fill="#5b3726"/><path d="m144 216c-3.234375 0-6.152344-1.949219-7.390625-4.9375s-.550781-6.429688 1.734375-8.71875l8-8c3.140625-3.03125 8.128906-2.988281 11.214844.097656 3.085937 3.085938 3.128906 8.074219.097656 11.214844l-8 8c-1.5 1.5-3.535156 2.34375-5.65625 2.34375zm0 0" fill="#5b3726"/><path d="m184 288c-3.234375 0-6.152344-1.949219-7.390625-4.9375s-.550781-6.429688 1.734375-8.71875l8-8c3.140625-3.03125 8.128906-2.988281 11.214844.097656 3.085937 3.085938 3.128906 8.074219.097656 11.214844l-8 8c-1.5 1.5-3.535156 2.34375-5.65625 2.34375zm0 0" fill="#5b3726"/><g fill="#482b1e"><path d="m192 240c-2.121094 0-4.15625-.84375-5.65625-2.34375l-8-8c-3.03125-3.140625-2.988281-8.128906.097656-11.214844 3.085938-3.085937 8.074219-3.128906 11.214844-.097656l8 8c2.285156 2.289062 2.972656 5.730469 1.734375 8.71875s-4.15625 4.9375-7.390625 4.9375zm0 0"/><path d="m344 184h16v16h-16zm0 0"/><path d="m286.359375 263.28125h16v16h-16zm0 0"/><path d="m320 320h16v16h-16zm0 0"/><path d="m224 168h16v16h-16zm0 0"/></g></svg>