<svg id="Layer_1_1_" enable-background="new 0 0 64 64" height="512" viewBox="0 0 64 64" width="512" xmlns="http://www.w3.org/2000/svg"><path d="m15 61c-.39-.39-.39-1.024 0-1.414l11.345-11.345 1.414 1.414-11.345 11.345c-.39.39-1.024.39-1.414 0z" fill="#9b4802"/><path d="m3 49c-.39-.39-.39-1.024 0-1.414l11.293-11.293 1.414 1.414-11.293 11.293c-.39.39-1.024.39-1.414 0z" fill="#9b4802"/><circle cx="31" cy="21" fill="#eccc7f" r="8"/><circle cx="43" cy="33" fill="#eccc7f" r="8"/><path d="m40 32h-.728c-.744 0-1.258-.8-.897-1.451.273-.493.682-.901 1.174-1.174.651-.361 1.451.152 1.451.897v.728c-.552 0-1 .448-1 1z" fill="#fff"/><path d="m31 24.728v-.728c.552 0 1-.448 1-1h.728c.744 0 1.258.8.897 1.451-.273.493-.682.901-1.174 1.174-.651.361-1.451-.152-1.451-.897z" fill="#fff"/><g fill="#ecc76d"><path d="m44 40c-4.411 0-8-3.589-8-8 0-1.951.704-3.74 1.87-5.13-1.752 1.468-2.87 3.67-2.87 6.13 0 4.411 3.589 8 8 8 2.46 0 4.662-1.118 6.13-2.87-1.39 1.166-3.179 1.87-5.13 1.87z"/><path d="m43 25c-2.46 0-4.662 1.118-6.13 2.87 1.39-1.166 3.179-1.87 5.13-1.87 4.411 0 8 3.589 8 8 0 1.951-.704 3.74-1.87 5.13 1.752-1.468 2.87-3.67 2.87-6.13 0-4.411-3.589-8-8-8z"/><path d="m32 28c-4.411 0-8-3.589-8-8 0-1.951.704-3.74 1.87-5.13-1.752 1.468-2.87 3.67-2.87 6.13 0 4.411 3.589 8 8 8 2.46 0 4.662-1.118 6.13-2.87-1.39 1.166-3.179 1.87-5.13 1.87z"/><path d="m31 13c-2.46 0-4.662 1.118-6.13 2.87 1.39-1.166 3.179-1.87 5.13-1.87 4.411 0 8 3.589 8 8 0 1.951-.704 3.74-1.87 5.13 1.752-1.468 2.87-3.67 2.87-6.13 0-4.411-3.589-8-8-8z"/></g><circle cx="42" cy="10" fill="#edaa9c" r="8"/><circle cx="54" cy="22" fill="#edaa9c" r="8"/><path d="m41.293 6.435-.487-.542c-.497-.554-.245-1.47.48-1.637.549-.126 1.126-.095 1.658.089.704.243.856 1.181.302 1.679l-.541.486c-.369-.411-1.001-.444-1.412-.075z" fill="#fff"/><path d="m55.774 17.42c-.247-.494-.848-.694-1.342-.447l-.326-.651c-.333-.666.153-1.483.897-1.451.563.024 1.11.206 1.575.525.614.42.513 1.366-.153 1.699z" fill="#fff"/><path d="m55 29c-4.411 0-8-3.589-8-8 0-1.951.704-3.74 1.87-5.13-1.752 1.468-2.87 3.67-2.87 6.13 0 4.411 3.589 8 8 8 2.46 0 4.662-1.118 6.13-2.87-1.39 1.166-3.179 1.87-5.13 1.87z" fill="#eda495"/><path d="m43 17c-4.411 0-8-3.589-8-8 0-1.951.704-3.74 1.87-5.13-1.752 1.468-2.87 3.67-2.87 6.13 0 4.411 3.589 8 8 8 2.46 0 4.662-1.118 6.13-2.87-1.39 1.166-3.179 1.87-5.13 1.87z" fill="#eda495"/><circle cx="20" cy="32" fill="#8bbf63" r="8"/><circle cx="32" cy="44" fill="#8bbf63" r="8"/><path d="m20.789 29.553c-.246-.492-.85-.693-1.342-.447l-.325-.651c-.333-.666.153-1.483.897-1.451.562.024 1.109.207 1.574.524.614.42.513 1.366-.153 1.699z" fill="#fff"/><path d="m32 47.728v-.728c.552 0 1-.448 1-1h.728c.744 0 1.258.8.897 1.451-.273.493-.682.901-1.174 1.174-.651.361-1.451-.152-1.451-.897z" fill="#fff"/><path d="m20 24c-.169 0-.334.015-.5.025 4.178.261 7.5 3.733 7.5 7.975s-3.322 7.714-7.5 7.975c.166.01.331.025.5.025 4.411 0 8-3.589 8-8s-3.589-8-8-8z" fill="#7dbf4a"/><path d="m32 36c-.169 0-.334.015-.5.025 4.178.261 7.5 3.733 7.5 7.975s-3.322 7.714-7.5 7.975c.166.01.331.025.5.025 4.411 0 8-3.589 8-8s-3.589-8-8-8z" fill="#7dbf4a"/></svg>