<svg height="512pt" viewBox="-51 0 511 512" width="512pt" xmlns="http://www.w3.org/2000/svg"><path d="m279.234375 512h-146.792969c-11.792968 0-22.058594-8.066406-24.84375-19.527344l-19.066406-78.4375h233.945312l-18.351562 78.238282c-2.710938 11.554687-13.019531 19.726562-24.890625 19.726562zm0 0" fill="#c42d2d"/><path d="m385.953125 376.074219c-21.691406 57.480469-78.882813 95.445312-142.464844 95.445312h-76.28125c-63.894531 0-121.273437-38.339843-142.757812-96.207031-32.816407-88.390625-33.335938-172.996094 7.339843-264.535156 29.527344-67.144532 97.976563-110.777344 173.789063-110.777344 6.691406 0 13.324219.34375 19.875 1.011719 67.714844 6.863281 127.296875 48.625 154.179687 110.382812 43.15625 99.144531 37.097657 183.101563 6.320313 264.679688zm0 0" fill="#f44545"/><path d="m385.953125 376.074219c-21.691406 57.480469-78.882813 95.445312-142.464844 95.445312h-36.59375c-63.898437 0-121.277343-38.339843-142.757812-96.207031-32.820313-88.390625-33.335938-172.996094 7.339843-264.535156 26.925782-61.230469 86.234376-102.914063 153.976563-109.765625 67.714844 6.863281 127.296875 48.625 154.179687 110.382812 43.15625 99.144531 37.097657 183.101563 6.320313 264.679688zm0 0" fill="#fb5858"/><path d="m348.679688 222.757812c-5.914063 16.105469-15.832032 29.890626-28.410157 40.40625-16.886719 14.164063-38.535156 22.414063-61.585937 22.414063h-105.921875c-67.960938 0-113.308594-68.363281-89.796875-130.308594 9.90625-26.128906 30.375-45.882812 55.15625-55.4375 10.796875-4.175781 22.453125-6.421875 34.484375-6.421875h106.226562c66.996094 0 113.171875 67.105469 89.847657 129.347656zm0 0" fill="#ffd993"/><path d="m348.679688 222.757812c-5.914063 16.105469-15.832032 29.890626-28.410157 40.40625-10.777343 4.15625-22.410156 6.402344-34.429687 6.402344h-105.921875c-67.964844 0-113.308594-68.359375-89.796875-130.308594 5.941406-15.675781 15.71875-29.117187 28-39.425781 10.796875-4.175781 22.453125-6.421875 34.484375-6.421875h106.226562c66.996094 0 113.171875 67.105469 89.847657 129.347656zm0 0" fill="#ffe7c0"/><path d="m125.5625 351.347656c-.984375-16.207031 11.78125-30.324218 28.015625-30.066406 15.089844.238281 27.25 12.542969 27.253906 27.691406v.003906c-.039062.167969-12.523437 55.863282 13.613281 78.007813 3.472657 2.945313 1.042969 8.601563-3.476562 8.054687-24.097656-2.90625-61.421875-18.105468-65.40625-83.691406zm0 0" fill="#ffb52d"/><path d="m40.554688 318.875c-.984376-16.210938 11.78125-30.328125 28.019531-30.070312 15.089843.238281 27.246093 12.546874 27.25 27.691406v.003906c-.039063.167969-12.523438 55.863281 13.613281 78.011719 3.476562 2.941406 1.042969 8.597656-3.476562 8.050781-24.097657-2.90625-61.421876-18.101562-65.40625-83.6875zm0 0" fill="#ffb52d"/><path d="m285.445312 351.347656c.984376-16.207031-11.78125-30.324218-28.019531-30.066406-15.089843.238281-27.246093 12.542969-27.25 27.691406v.003906c.039063.167969 12.523438 55.863282-13.613281 78.007813-3.476562 2.945313-1.046875 8.601563 3.476562 8.054687 24.097657-2.90625 61.421876-18.105468 65.40625-83.691406zm0 0" fill="#ffb52d"/><path d="m370.453125 318.875c.984375-16.210938-11.78125-30.328125-28.019531-30.070312-15.089844.238281-27.246094 12.546874-27.25 27.691406v.003906c.039062.167969 12.523437 55.863281-13.613282 78.011719-3.476562 2.941406-1.046874 8.597656 3.476563 8.050781 24.097656-2.90625 61.421875-18.101562 65.40625-83.6875zm0 0" fill="#ffb52d"/><g fill="#ae583e"><path d="m161.710938 172.261719c0 10.671875-8.652344 19.320312-19.324219 19.320312-10.667969 0-19.320313-8.648437-19.320313-19.320312s8.652344-19.320313 19.320313-19.320313c10.671875 0 19.324219 8.648438 19.324219 19.320313zm0 0"/><path d="m287.941406 172.261719c0 10.671875-8.652344 19.320312-19.320312 19.320312-10.671875 0-19.324219-8.648437-19.324219-19.320312s8.652344-19.320313 19.324219-19.320313c10.667968 0 19.320312 8.648438 19.320312 19.320313zm0 0"/><path d="m188.449219 203.59375h-16.382813c-11.601562 0-21.929687 7.371094-25.699218 18.339844-1.597657 4.648437-5.972657 7.769531-10.886719 7.769531h-15.566407c-4.328124 0-7.832031 3.503906-7.832031 7.832031s3.503907 7.832032 7.832031 7.832032h15.566407c11.601562 0 21.929687-7.371094 25.699219-18.339844 1.597656-4.648438 5.972656-7.769532 10.886718-7.769532h16.382813c4.328125 0 7.832031-3.503906 7.832031-7.832031s-3.503906-7.832031-7.832031-7.832031zm0 0"/><path d="m291.09375 229.703125h-15.566406c-4.914063 0-9.289063-3.121094-10.886719-7.769531-3.769531-10.96875-14.097656-18.34375-25.699219-18.34375h-16.382812c-4.328125 0-7.832032 3.507812-7.832032 7.835937 0 4.324219 3.503907 7.832031 7.832032 7.832031h16.382812c4.914063 0 9.289063 3.121094 10.886719 7.769532 3.769531 10.96875 14.097656 18.339844 25.699219 18.339844h15.566406c4.328125 0 7.832031-3.507813 7.832031-7.832032 0-4.328125-3.503906-7.832031-7.832031-7.832031zm0 0"/><path d="m306.960938 138.648438c-11.03125-8.214844-23.085938-12.378907-35.828126-12.378907-21.421874 0-37.058593 11.96875-37.714843 12.480469-3.414063 2.65625-4.027344 7.578125-1.375 10.992188 2.65625 3.414062 7.578125 4.027343 10.992187 1.371093.117188-.089843 12.25-9.179687 28.097656-9.179687 9.296876 0 18.203126 3.121094 26.472657 9.28125 1.40625 1.046875 3.046875 1.550781 4.671875 1.550781 2.390625 0 4.75-1.089844 6.289062-3.15625 2.582032-3.46875 1.867188-8.375-1.605468-10.960937zm0 0"/><path d="m139.875 141.933594c15.84375 0 27.917969 9.050781 28.121094 9.203125 3.414062 2.632812 8.316406 2.011719 10.964844-1.394531 2.65625-3.414063 2.042968-8.335938-1.375-10.992188-.652344-.507812-16.292969-12.480469-37.710938-12.480469-12.742188 0-24.796875 4.164063-35.832031 12.382813-6.039063 4.496094-2.816407 14.117187 4.6875 14.113281 1.625 0 3.265625-.503906 4.671875-1.550781 8.269531-6.15625 17.175781-9.28125 26.472656-9.28125zm0 0"/></g></svg>