<svg height="494pt" viewBox="-46 0 494 494.024" width="494pt" xmlns="http://www.w3.org/2000/svg"><g fill="#f0bc5e"><path d="m312.109375 31.863281-29.28125 51.121094c-1.28125-5.359375-4-10.398437-8.160156-14.480469-2.800781-2.878906-6.078125-5.039062-9.519531-6.480468v-48c16.640624 3.359374 32.480468 9.359374 46.960937 17.839843zm0 0"/><path d="m306.667969 109.144531 54.480469-31.121093.800781-.558594c8.71875 12.160156 15.597656 25.597656 20.320312 39.917968l2.878907 8.640626h-61.921876c-3.199218-2.160157-6.558593-3.917969-10.078124-5.359376h-.082032c-.160156-1.121093-.320312-2.320312-.71875-3.441406-1.039062-3.359375-3.121094-6.160156-5.679687-8.078125zm0 0"/><path d="m312.347656 117.222656c.398438 1.121094.558594 2.320313.71875 3.441406.5625 6-2 11.839844-6.796875 15.359376 2.160157 6.71875.078125 14.402343-5.839843 18.800781-5.921876 4.398437-13.683594 4.160156-19.28125-.082031-4.878907 3.683593-11.519532 4.402343-17.039063 1.523437-.800781-.402344-1.519531-.882813-2.242187-1.441406-5.917969-4.398438-8-12.082031-5.839844-18.800781-5.679688-4.160157-8.320313-11.679688-6.078125-18.800782 2.238281-7.117187 8.71875-11.519531 15.679687-11.519531.640625-2 1.597656-3.839844 2.960938-5.4375 2.878906-3.761719 7.4375-6.242187 12.558594-6.242187 6.320312 0 11.757812 3.761718 14.480468 9.121093.398438.800781.800782 1.679688 1.039063 2.558594 3.679687 0 7.199219 1.199219 10 3.441406 2.558593 1.917969 4.640625 4.71875 5.679687 8.078125zm0 0"/><path d="m280.269531 340.34375.878907 1.679688-61.121094 67.199218-18.078125-20.078125 55.199219-63.121093c9.839843 0 18.800781 5.519531 23.121093 14.320312zm0 0"/><path d="m201.949219 389.144531 18.078125 20.078125 69.121094 76.800782h-40l-128-144 .878906-1.679688c4.320312-8.800781 13.28125-14.320312 23.121094-14.320312zm0 0"/></g><path d="m249.148438 198.023438c0 4.417968-3.582032 8-8 8-4.417969 0-8-3.582032-8-8 0-4.417969 3.582031-8 8-8 4.417968 0 8 3.582031 8 8zm0 0"/><path d="m169.148438 198.023438c0 4.417968-3.582032 8-8 8-4.417969 0-8-3.582032-8-8 0-4.417969 3.582031-8 8-8 4.417968 0 8 3.582031 8 8zm0 0"/><path d="m169.148438 262.023438c8.0625 0 15.945312 3.257812 21.625 8.9375l10.375 10.375 10.375-10.375c5.679687-5.679688 13.5625-8.9375 21.625-8.9375v-16c-11.832032 0-23.425782 4.617187-32 12.710937-8.578126-8.09375-20.167969-12.710937-32-12.710937zm0 0"/><path d="m273.148438 118.023438h16v16h-16zm0 0"/><path d="m89.148438 150.023438h16v16h-16zm0 0"/><path d="m389.394531 397.273438c-3.09375-22.867188-19.535156-41.289063-41.910156-46.9375l-60.929687-15.207032c-4.628907-8.242187-12.382813-13.953125-21.40625-16.113281v-28.710937c.457031-.488282.9375-.976563 1.375-1.464844l57.175781 40.839844 4.394531-7.6875c21.621094-37.878907 33.054688-80.914063 33.054688-124.449219v-5.917969c0-12.488281-2.023438-24.882812-6.015626-36.855469-2.554687-7.609375-6.402343-14.625-11.25-20.746093h52.371094l-6.386718-19.144532c-4.941407-15.007812-12.160157-29.167968-21.367188-42.007812-7.175781-10.269532-15.710938-19.765625-25.351562-28.214844l-1.992188-1.753906c-7.558594-6.664063-15.984375-12.703125-25-17.941406-15.222656-8.914063-31.847656-15.234376-49.425781-18.785157l-9.582031-1.929687v43.273437c-3.710938-3.839843-8.144532-6.902343-13.167969-8.960937-6.816407-2.839844-14.257813-3.679688-21.761719-2.429688-12.78125-8.015625-29.375-8.015625-42.160156 0-7.503906-1.234375-14.941406-.417968-21.71875 2.414063-6.992188 2.871093-12.871094 7.59375-17.191406 13.761719-.761719.167968-1.417969.496093-2.152344.710937l-60.585938-53.015625-10.527344 12.046875 56.113282 49.097656c-.632813.558594-1.359375 1.023438-1.953125 1.632813-1.757813 1.710937-3.3125 3.582031-4.671875 5.558594l-65.6875-21.894532-5.0625 15.167969 63.75 21.246094c-4.09375 3.066406-7.550782 6.800781-10.136719 11.160156h-59.085937v16h48v2.160156c-19.777344 6.921875-35.265626 22.410157-41.984376 42.59375-3.992187 11.972657-6.015624 24.375-6.015624 36.855469v5.917969c0 43.527343 11.429687 86.5625 33.054687 124.449219l4.394531 7.6875 57.175782-40.839844c.4375.488281.917968.976562 1.375 1.464844v28.710937c-9.082032 2.167969-16.863282 7.921875-21.425782 16.121094l-60.933594 15.207031c-22.351562 5.640625-38.800781 24.0625-41.890624 46.945312l-12.8867192 96.734376h402.2656252zm-236.246093-93.480469c14.144531 9.253906 30.695312 14.230469 48 14.230469 17.304687 0 33.855468-4.984376 48-14.230469v19.222656l-47.289063 54.074219-48.710937-54.136719zm-16.519532-195.144531c12.535156-13.953126 37.261719-22.625 64.519532-22.625 20.671874 0 40.367187 5.3125 54.0625 14.113281-6.015626 2.839843-10.800782 8-12.902344 14.6875-2.664063 8.488281-.648438 17.550781 5 24-.175782 1.726562-.046875 3.441406.128906 5.136719-4.859375-1.527344-8.152344-1.9375-11.570312-1.9375-12.664063 0-25.109376 4.664062-34.71875 12.90625-9.609376-8.242188-22.054688-12.90625-34.71875-12.90625-8.800782 0-17.210938 2.183593-24.699219 6.175781-8.101563-6.613281-12.582031-14.398438-12.582031-22.175781 0-5.992188 2.511718-11.832032 7.480468-17.375zm151.855469-1.90625c.167969.347656.367187.707031.472656 1.082031l1.613281 5.878906h6.105469c1.855469 0 3.640625.601563 5.183594 1.832031 1.335937 1.007813 2.351563 2.457032 2.960937 4.386719.183594.527344.214844 1.117187.296876 1.652344v.011719c.230468 3.148437-1.136719 6.191406-3.585938 7.988281l-4.648438 3.417969 1.769532 5.496093c1.199218 3.71875 0 7.703125-2.992188 9.917969-2.953125 2.195312-6.746094 2.167969-9.679687-.03125l-4.816407-3.648438-4.832031 3.632813c-2.496093 1.886719-5.855469 2.207031-8.679687.746094-.222656-.113281-.496094-.296875-1.015625-.699219-2.992188-2.214844-4.191407-6.199219-2.992188-9.917969l1.765625-5.503906-4.652344-3.410156c-3.066406-2.238281-4.347656-6.238281-3.179687-9.941407 1.121094-3.535156 4.355469-5.921874 8.050781-5.921874h5.832032l1.78125-5.558594c.355468-1.082032.824218-1.960938 1.699218-3.015625 3.382813-4.433594 10.886719-3.617188 13.542969 1.605469zm-159.335937 88.5625c0-12.175782 5.945312-23.570313 16.023437-30.535157 6.144531-4.417969 13.496094-6.746093 21.257813-6.746093 9.789062 0 19.390624 3.984374 26.34375 10.9375l8.375 8.375 8.375-8.375c6.953124-6.953126 16.550781-10.9375 26.34375-10.9375 2.730468 0 5.816406 0 22.503906 7.617187 1.394531.992187 2.617187 2.054687 3.863281 3.351563 7.042969 6.960937 10.914063 16.304687 10.914063 26.3125v34.71875c0 15.679687-4.984376 30.617187-14.382813 43.175781-2.113281 2.792969-4.480469 5.496093-7.25 8.257812-13.496094 13.261719-31.375 20.566407-50.367187 20.566407-19 0-36.894532-7.3125-50.351563-20.542969-2.777344-2.769531-5.152344-5.480469-7.242187-8.25-9.421876-12.589844-14.40625-27.527344-14.40625-43.207031zm216 2.238281c0 37.800781-9.199219 75.191406-26.695313 108.722656l-42.328125-30.234375c8.519531-13.847656 13.023438-29.589844 13.023438-46.007812v-34.71875c0-11.273438-3.496094-21.945313-9.816407-30.777344.59375-.207032 1.207031-.304688 1.785157-.558594 3.101562 1.382812 6.414062 2.078125 9.71875 2.078125 5.03125 0 10.0625-1.597656 14.367187-4.808594 7.058594-5.238281 10.65625-13.8125 9.777344-22.4375 1.589843-1.832031 2.792969-3.9375 3.792969-6.136719.0625.039063.125.070313.191406.121094 9.757812 6.160156 17.214844 15.765625 21 27.046875 3.429687 10.34375 5.183594 21.03125 5.183594 31.792969zm-37.054688-158.75c8.140625 4.726562 15.710938 10.152343 22.496094 16.128906l2.007812 1.765625c8.679688 7.609375 16.351563 16.152344 22.847656 25.449219 7.925782 11.054687 14.175782 23.109375 18.589844 35.894531h-48.613281c-1.730469-1.0625-3.523437-2.039062-5.371094-2.941406-.023437-.074219-.039062-.167969-.0625-.234375-1.503906-4.800781-4.519531-9.09375-8.335937-11.960938-2.097656-1.671875-4.519532-2.824219-7.054688-3.703125-2.882812-6.96875-7.578125-12.839844-13.738281-17.144531-.078125-.328125-.167969-.621094-.253906-.902344-1.671875-6.992187-5.242188-13.328125-10.210938-18.207031-2.183593-2.257812-4.65625-4.058594-7.246093-5.640625v-33.160156c12.3125 3.351562 24.023437 8.253906 34.945312 14.65625zm-185.515625 55.085937 3.507813-1.957031.511718-3.976563c.308594-2.386718.917969-4.570312 1.925782-6.832031 1.074218-2.554687 2.6875-4.9375 4.824218-7.023437 1.945313-1.992188 4.328125-3.609375 7.046875-4.753906 2.105469-.9375 4.289063-1.542969 6.671875-1.855469l3.953125-.511719 1.96875-3.472656c2.632813-4.648438 6.589844-8.160156 11.480469-10.167969 5.925781-2.488281 11.625-1.863281 15.335938-.914063l3.75.960938 3.082031-2.34375c3-2.277344 7.960937-5.007812 14.511719-5.007812 6.550781 0 11.511718 2.730468 14.511718 5.007812l3.078125 2.34375 3.753907-.960938c3.71875-.941406 9.390624-1.550781 15.375.929688 4.839843 1.992188 8.808593 5.503906 11.441406 10.152344l1.96875 3.472656 3.949218.511719c2.386719.3125 4.570313.917969 6.832032 1.925781 2.554687 1.074219 4.9375 2.691406 7 4.800781 2.945312 2.890625 5.015625 6.570313 6.128906 11.160157.144531.457031.191406.929687.28125 1.394531-2.511719.621093-4.824219 1.734375-6.976562 3.09375-16.550782-12.488281-41.070313-19.832031-67.34375-19.832031-29.121094 0-56.097657 9.128906-72.3125 24h-6.441407c.066407-.039063.113281-.101563.183594-.144532zm-65.429687 103.664063v-5.917969c0-10.761719 1.75-21.457031 5.183593-31.792969 4.527344-13.585937 14.265625-24.359375 26.816407-30.375v4.566407h16v-24h11.6875c-2.359376 5.160156-3.6875 10.535156-3.6875 16 0 11.578124 5.472656 22.695312 15.457031 31.945312-9.761719 9.832031-15.457031 23.175781-15.457031 37.335938v34.71875c0 16.410156 4.496093 32.144531 13.023437 46.007812l-42.335937 30.234375c-17.488282-33.523437-26.6875-70.921875-26.6875-108.722656zm41.105468 280.480469c-.65625-3.296876-1.105468-6.625-1.105468-10 0-7.910157 1.863281-15.863282 5.398437-22.984376 6.9375-13.871093 10.601563-29.351562 10.601563-44.773437v-10.242187h-16v10.242187c0 12.941406-3.089844 25.949219-8.921876 37.636719-4.628906 9.335937-7.078124 19.753906-7.078124 30.121094 0 3.359374.273437 6.695312.765624 10h-63.628906l10.480469-78.609376c2.207031-16.351562 13.964844-29.519531 29.925781-33.550781l67.871094-16.941406 2.648438-5.050781c2.496093-5.078125 7.167968-8.542969 12.640624-9.542969l129.335938 143.695313zm222.125 0c.496094-3.304688.769532-6.640626.769532-10 0-10.367188-2.449219-20.785157-7.089844-30.144532-5.824219-11.664062-8.910156-24.671875-8.910156-37.613281v-10.242187h-16v10.242187c0 15.421875 3.664062 30.894531 10.589843 44.75 3.546875 7.144531 5.410157 15.097656 5.410157 23.007813 0 3.375-.449219 6.703124-1.105469 10h-11.328125l-80.070313-88.960938 47.863281-54.726562c5.449219 1.015624 10.113282 4.503906 12.679688 9.726562l2.542969 4.847656 67.847656 16.945313c15.984375 4.03125 27.746094 17.199219 29.953125 33.535156l10.480469 78.632813zm0 0"/></svg>