<svg id="Capa_1" enable-background="new 0 0 512 512" height="512" viewBox="0 0 512 512" width="512" xmlns="http://www.w3.org/2000/svg"><g><g><g><g><path d="m233.723 33.553 22.277-33.553c33.83.13 62.331 24.24 68.861 56.2l.342 7.398-7.771 5.726-9.821-.414-9.984 12.3h-34.723l-6.904-16.67z" fill="#07485e"/><path d="m256 0c-33.83.13-62.3 24.24-68.83 56.2l-.342 7.398 7.771 5.726 9.821-.414 9.984 12.3h34.723l6.873-16.67z" fill="#09607d"/></g><g><path d="m385.793 11.544 17.72 24.21-62.002 45.456-7.161 5.109-26.213-3.404-.526-14.005z" fill="#ff9e22"/><path d="m126.238 11.544-17.72 24.21 62.002 45.456 7.161 5.109 26.213-3.404.526-14.005z" fill="#ffc377"/></g><g><path d="m256 64.54h14.481c12.76 0 25.19 1.51 37.13 4.37 11.83 2.82 23.18 6.98 33.9 12.3 56.7 28.11 95.95 88.84 95.95 159.24v36.17h-98.81l-27.365-103.092-55.286-36.788-15.979-34.208z" fill="#04303e"/><path d="m256 64.54h-14.45c-12.76 0-25.19 1.51-37.13 4.37-11.83 2.82-23.18 6.98-33.9 12.3-56.7 28.11-95.95 88.84-95.95 159.24v36.17h98.81l27.365-103.092 55.255-36.788z" fill="#07485e"/></g></g><g><g><path d="m256 329.27 9.329-38.355h32.936l16.316 17.055v58.99l5.159 21.009-42.49 41.582-21.25-5.291-18.66-51.217z" fill="#f1ba87"/><path d="m256 329.27-9.298-38.355h-32.936l-16.316 17.055v58.99l-5.159 21.009 42.489 41.582 21.22-5.291z" fill="#f1d0a4"/></g><g><path d="m256 329.27c22.17-.07 42.821-8.07 58.581-21.3 20.507-17.193 32.58-43.068 32.58-69.83v-51.63c-27.49 0-49.77-22.28-49.77-49.77h-41.391l-24.149 101.749z" fill="#f1d0a4"/><path d="m256 329.27c-22.17-.07-42.79-8.07-58.55-21.3-20.516-17.201-32.58-43.059-32.58-69.83v-51.63c27.49 0 49.77-22.28 49.77-49.77h41.36z" fill="#ffe3c1"/></g></g></g><g><path d="m211.36 468.08-2.277 17.48-19.597 19.208-22.936 7.232h-166.55c30.196-53.176 80.457-93.809 134.8-120.48l22.923 1.054 50.043 50.043z" fill="#ff3c7d"/><path d="m512 512h-256l9.301-38.912 77.694-77.54 33.885-4.189c55.1 26.991 105.73 68.901 135.12 120.641z" fill="#d00050"/><g><path d="m246.811 451.731-16.731 16.439-18.72-.09-76.56-76.56c13.74-6.76 27.76-12.58 41.8-17.4l20.85-7.16 58.55 57.3z" fill="#f1f6f7"/><g><path d="m376.88 391.36-120.88 120.64-9.298-34.277 9.298-53.463 58.581-57.3 20.819 7.16c13.93 4.78 27.84 10.55 41.48 17.24z" fill="#b3d1d6"/><path d="m256 424.26v87.74h-89.45l44.81-43.92z" fill="#cee1e4"/></g></g></g></g></svg>