<svg id="Capa_1" enable-background="new 0 0 512 512" height="512" viewBox="0 0 512 512" width="512" xmlns="http://www.w3.org/2000/svg"><g><path d="m478.077 285.738c-27.161-90.155-86.959-155.553-120.022-186.401-13.012-12.141-33.213-12.141-46.225 0-33.063 30.848-92.861 96.246-120.022 186.401-6.367 21.133 9.346 42.445 31.416 42.445h111.718 111.718c22.071 0 37.784-21.312 31.417-42.445z" fill="#f5f8f9"/><path d="m446.664 328.18h-25.808c22.066 0 37.784-21.307 31.417-42.439-27.162-90.159-86.96-155.556-120.028-186.399-3.066-2.861-6.521-5.045-10.202-6.552 11.925-4.922 26.064-2.738 36.01 6.552 33.068 30.843 92.866 96.24 120.028 186.399 6.367 21.132-9.351 42.439-31.417 42.439z" fill="#e8edf2"/><path d="m382.485 328.183h-95.086v-82.931c0-6.489 5.26-11.75 11.75-11.75h71.587c6.489 0 11.75 5.26 11.75 11.75v82.931z" fill="#f5f8f9"/><path d="m382.485 328.183h-95.086v-82.931c0-6.489 5.26-11.75 11.75-11.75h71.587c6.489 0 11.75 5.26 11.75 11.75v82.931z" fill="#9c9c9c"/><path d="m382.487 245.25v82.931h-20.507v-82.931c0-6.491-5.26-11.75-11.75-11.75h20.507c6.49-.001 11.75 5.259 11.75 11.75z" fill="#838383"/><g><g><path d="m478.505 135.1c-1.463-.446-3.768-1.15-5.382-1.642-.917-.28-1.297-1.368-.444-2.61l2.876-4.185c.452-.658.272-1.559-.399-1.993-.8-.517-1.713-1.107-1.802-1.168-8.933-6.058-20.849-7.173-30.878-3.418 1.278-11.547-3.743-23.787-13.122-30.805-.086-.065-.942-.735-1.692-1.322-.629-.493-1.539-.37-2.014.273l-3.017 4.084c-.895 1.212-2.048 1.208-2.612.432-.992-1.364-2.409-3.314-3.308-4.551-.47-.646-1.379-.776-2.012-.288-.754.582-1.615 1.245-1.702 1.309-9.432 6.946-14.548 19.147-13.359 30.703-10-3.831-21.924-2.808-30.903 3.18-.09.06-1.007.643-1.811 1.154-.674.428-.862 1.328-.415 1.99l2.843 4.207c.844 1.248.455 2.334-.464 2.607-1.617.48-3.928 1.165-5.394 1.6-.766.227-1.192 1.041-.943 1.801.297.905.635 1.938.666 2.041 3.364 11.089 12.987 19.914 24.124 22.749-10.464 6.947-16.565 20.187-14.762 32.712.015.107.147 1.186.261 2.131.096.793.827 1.35 1.617 1.231l5.021-.754c1.49-.224 2.302.595 2.153 1.541-.263 1.666-.64 4.047-.879 5.557-.125.789.426 1.524 1.219 1.627.945.122 2.022.261 2.129.278 15.524 2.357 32.24-7.446 36.714-22.75 4.355 15.338 20.996 25.269 36.537 23.032.107-.015 1.186-.147 2.131-.261.793-.096 1.35-.827 1.231-1.617-.227-1.512-.585-3.896-.836-5.564-.142-.948.676-1.76 2.165-1.525l5.016.793c.789.125 1.524-.426 1.627-1.219.122-.945.261-2.022.278-2.129 1.9-12.511-4.099-25.797-14.51-32.824 11.159-2.75 20.849-11.5 24.299-22.563.032-.103.378-1.133.682-2.036.255-.757-.165-1.575-.929-1.808z" fill="#fea3ce"/></g><g><path d="m429.353 89.278c-.085-.064-.944-.734-1.69-1.325-.629-.492-1.543-.367-2.019.274l-3.011 4.09c-.897 1.205-2.05 1.199-2.619.427-.985-1.362-2.405-3.316-3.307-4.547-.465-.647-1.381-.784-2.014-.287-.149.116-2.365 1.875-2.4 1.844 7.243 6.48 11.367 16.262 11.247 25.941-.018 1.488 1.389 2.589 2.825 2.201 5.282-1.427 10.926-1.585 16.29-.467.308-10.728-4.642-21.673-13.302-28.151zm39.611 105.05c1.899-12.506-4.1-25.795-14.513-32.823 11.157-2.749 20.851-11.495 24.301-22.556.03-.111.383-1.143.684-2.052.25-.754-.165-1.56-.924-1.792-1.47-.451-3.771-1.149-5.389-1.647-.919-.283-1.294-1.369-.448-2.613l2.882-4.181c.449-.656.273-1.561-.405-1.994-.799-.513-1.71-1.105-1.796-1.169-7.584-5.138-17.297-6.715-26.191-4.787 2.487.887 4.859 2.084 7.054 3.568.097.056 1.008.648 1.805 1.171.669.432.855 1.329.405 1.994l-2.882 4.181c-.855 1.241-.471 2.33.448 2.612 1.609.486 3.915 1.195 5.377 1.634.772.237 1.185 1.059.933 1.808-.3.906-.652 1.938-.68 2.039-3.03 9.713-10.875 17.648-20.297 21.299-1.582.613-2.021 2.667-.75 3.79 8.375 7.404 12.948 19.161 11.257 30.299-.019.103-.156 1.184-.28 2.132-.103.792-.839 1.342-1.628 1.217l-5.015-.793c-1.489-.241-2.305.571-2.166 1.518.249 1.674.612 4.058.842 5.574.069.478-.101.932-.429 1.241 5.15 1.923 10.734 2.635 16.191 1.849.108-.01 1.19-.143 2.131-.254.794-.099 1.353-.831 1.234-1.619-.229-1.516-.583-3.898-.834-5.563-.148-.948.668-1.76 2.159-1.529l5.016.793c.791.125 1.523-.421 1.627-1.216.124-.946.261-2.019.281-2.131z" fill="#fe7ab6"/></g><path d="m432.851 149.179-4.203-3.35.028-7.289c.016-4.247-3.414-7.704-7.661-7.72-.01 0-.02 0-.03 0-4.233 0-7.673 3.424-7.689 7.661l-.028 7.288-4.23 3.318c-3.341 2.621-3.926 7.455-1.305 10.797 1.517 1.935 3.775 2.945 6.056 2.945 1.66 0 3.333-.536 4.741-1.64l2.376-1.863 2.361 1.881c1.416 1.128 3.107 1.677 4.787 1.677 2.261 0 4.501-.992 6.019-2.898 2.647-3.321 2.1-8.16-1.222-10.807z" fill="#fe7ab6"/></g><path d="m320.193 285.738c-27.161-90.155-86.959-155.553-120.022-186.401-13.012-12.141-33.213-12.141-46.225 0-33.063 30.848-92.861 96.246-120.022 186.401-6.367 21.133 9.346 42.445 31.417 42.445h111.718 111.718c22.07 0 37.782-21.312 31.416-42.445z" fill="#f5f8f9"/><path d="m288.781 328.18h-25.808c22.066 0 37.784-21.307 31.417-42.439-27.162-90.159-86.96-155.556-120.028-186.399-3.066-2.861-6.521-5.045-10.202-6.552 11.925-4.922 26.064-2.738 36.01 6.552 33.068 30.843 92.866 96.24 120.028 186.399 6.356 21.132-9.352 42.439-31.417 42.439z" fill="#e8edf2"/><path d="m224.601 328.183h-95.086v-83.311c0-6.503 5.272-11.775 11.775-11.775h71.536c6.503 0 11.775 5.272 11.775 11.775z" fill="#f5f8f9"/><path d="m224.601 328.183h-95.086v-82.931c0-6.489 5.26-11.75 11.75-11.75h71.587c6.489 0 11.75 5.26 11.75 11.75v82.931z" fill="#9c9c9c"/><path d="m224.604 245.25v82.931h-20.507v-82.931c0-6.491-5.26-11.75-11.751-11.75h20.507c6.491-.001 11.751 5.259 11.751 11.75z" fill="#838383"/><path d="m52.345 417.982v-56.333h43.144v56.333c0 3.536-2.867 6.403-6.403 6.403h-30.338c-3.536-.001-6.403-2.867-6.403-6.403z" fill="#e19974"/><path d="m416.511 417.982v-56.333h43.144v56.333c0 3.536-2.867 6.403-6.403 6.403h-30.339c-3.535-.001-6.402-2.867-6.402-6.403z" fill="#e19974"/><path d="m95.491 369.615v48.366c0 3.537-2.871 6.408-6.408 6.408h-21.573c3.537 0 6.408-2.871 6.408-6.408v-48.366z" fill="#dc8758"/><path d="m459.655 369.615v48.366c0 3.537-2.871 6.408-6.398 6.408h-21.573c3.537 0 6.398-2.871 6.398-6.408v-48.366z" fill="#dc8758"/><path d="m499.138 369.276h-486.276c-7.104 0-12.862-5.758-12.862-12.862v-17.42c0-7.103 5.758-12.862 12.862-12.862h486.276c7.103 0 12.862 5.758 12.862 12.862v17.42c0 7.104-5.758 12.862-12.862 12.862z" fill="#e19974"/><path d="m512 338.998v17.421c0 7.096-5.763 12.858-12.858 12.858h-20.507c7.095 0 12.858-5.762 12.858-12.858v-17.421c0-7.106-5.763-12.868-12.858-12.868h20.507c7.095 0 12.858 5.762 12.858 12.868z" fill="#dc8758"/></g></svg>