<svg height="512" viewBox="0 0 512 512" width="512" xmlns="http://www.w3.org/2000/svg"><g id="Flat"><path d="m264 344h32l64 88h-120.444z" fill="#eb352f"/><path d="m136 416-40-8-72-152 176 128z" fill="#c7161f"/><path d="m176 488v-264h48v232z" fill="#c7161f"/><path d="m224 224v264l40-144z" fill="#f24b3f"/><path d="m296 344 80-320-40.662 374.09z" fill="#f24b3f"/><path d="m488 280-104 128-24 24-8 56-56-24 8-32z" fill="#b50912"/><path d="m488 280-184 152-8 32-72 24 26.67-96z" fill="#c7161f"/><path d="m136 416 40 72v-136z" fill="#eb352f"/><path d="m176 224-24 72 72-72z" fill="#f24b3f"/><path d="m224 288-72 8 72-72z" fill="#eb352f"/></g></svg>