<svg id="Solid_gradient" height="512" viewBox="0 0 512 512" width="512" xmlns="http://www.w3.org/2000/svg" xmlns:xlink="http://www.w3.org/1999/xlink" data-name="Solid gradient"><linearGradient id="linear-gradient" gradientUnits="userSpaceOnUse" x1="46.563" x2="50.413" y1=".893" y2="535.92"><stop offset="0" stop-color="#ff80c9"/><stop offset=".196" stop-color="#f67bcf"/><stop offset=".514" stop-color="#de6fdf"/><stop offset=".915" stop-color="#b65af9"/><stop offset="1" stop-color="#ad55ff"/></linearGradient><linearGradient id="linear-gradient-2" x1="49.963" x2="53.812" xlink:href="#linear-gradient" y1=".868" y2="535.895"/><linearGradient id="linear-gradient-3" x1="457.884" x2="461.734" xlink:href="#linear-gradient" y1="-2.067" y2="532.96"/><linearGradient id="linear-gradient-4" x1="254.499" x2="258.348" xlink:href="#linear-gradient" y1="-.603" y2="534.424"/><linearGradient id="linear-gradient-5" x1="253.032" x2="256.881" xlink:href="#linear-gradient" y1="-.593" y2="534.434"/><linearGradient id="linear-gradient-6" x1="459.327" x2="463.176" xlink:href="#linear-gradient" y1="-2.077" y2="532.95"/><linearGradient id="linear-gradient-7" x1="253.233" x2="257.082" xlink:href="#linear-gradient" y1="-.594" y2="534.433"/><linearGradient id="linear-gradient-8" x1="255.247" x2="259.096" xlink:href="#linear-gradient" y1="-.609" y2="534.418"/><linearGradient id="linear-gradient-9" x1="120.114" x2="123.963" xlink:href="#linear-gradient" y1=".363" y2="535.39"/><linearGradient id="linear-gradient-10" x1="367.565" x2="371.415" xlink:href="#linear-gradient" y1="-1.417" y2="533.61"/><linearGradient id="linear-gradient-11" x1="387.388" x2="391.237" xlink:href="#linear-gradient" y1="-1.559" y2="533.468"/><linearGradient id="linear-gradient-12" x1="140.397" x2="144.246" xlink:href="#linear-gradient" y1=".218" y2="535.244"/><linearGradient id="linear-gradient-13" x1="252.658" x2="256.507" xlink:href="#linear-gradient" y1="-.59" y2="534.437"/><linearGradient id="linear-gradient-14" x1="253.463" x2="257.312" xlink:href="#linear-gradient" y1="-.596" y2="534.431"/><linearGradient id="linear-gradient-15" x1="254.441" x2="258.291" xlink:href="#linear-gradient" y1="-.603" y2="534.424"/><linearGradient id="linear-gradient-16" x1="254.672" x2="258.521" xlink:href="#linear-gradient" y1="-.605" y2="534.422"/><linearGradient id="linear-gradient-17" x1="169.6" x2="173.449" xlink:href="#linear-gradient" y1=".007" y2="535.034"/><linearGradient id="linear-gradient-18" x1="340.722" x2="344.571" xlink:href="#linear-gradient" y1="-1.224" y2="533.803"/><g id="_16_copy_7" data-name="16 copy 7"><g><path d="m35.1 432h28.9v-32h-18.234z" fill="url(#linear-gradient)"/><g><path d="m72 304h-16a24.027 24.027 0 0 1 -24-24h16a8.009 8.009 0 0 0 8 8h16z" fill="url(#linear-gradient-2)"/><path d="m456 304h-16v-16h16a8.009 8.009 0 0 0 8-8h16a24.027 24.027 0 0 1 -24 24z" fill="url(#linear-gradient-3)"/></g><g><g><path d="m408.671 200h-305.342a38.264 38.264 0 0 1 -2.451 8h310.244a38.264 38.264 0 0 1 -2.451-8z" fill="url(#linear-gradient-4)"/><path d="m224 400h64v24h-64z" fill="url(#linear-gradient-5)"/><path d="m448 400v32h28.9l-10.666-32z" fill="url(#linear-gradient-6)"/><path d="m464.679 368h-417.358a46.093 46.093 0 0 1 -5.95 16h429.258a46.093 46.093 0 0 1 -5.95-16z" fill="url(#linear-gradient-7)"/><path d="m256 35.313a447.069 447.069 0 0 1 -88.584 68.687h70.291q6.242-6.377 12.13-13.1l.14-.162a8 8 0 0 1 12.046 0l.143.163q5.883 6.726 12.128 13.1h70.289a447.062 447.062 0 0 1 -88.583-68.688zm-8 44.687h-16v-16h16zm16 0v-16h16v16z" fill="url(#linear-gradient-8)"/><path d="m88 335.9a419.2 419.2 0 0 0 68.827-31.9h-68.827z" fill="url(#linear-gradient-9)"/><path d="m329.461 288h102.823a35.88 35.88 0 0 1 -7.6-16h-117.784q11.243 8.438 22.561 16z" fill="url(#linear-gradient-10)"/><path d="m424 304h-68.827a419.2 419.2 0 0 0 68.827 31.9z" fill="url(#linear-gradient-11)"/><path d="m205.1 272h-117.78a35.88 35.88 0 0 1 -7.6 16h102.819q11.325-7.567 22.561-16z" fill="url(#linear-gradient-12)"/><path d="m432 440v-40h-128v32a8 8 0 0 1 -8 8h-80a8 8 0 0 1 -8-8v-32h-128v40a8 8 0 0 1 -8 8h-24v32h416v-32h-24a8 8 0 0 1 -8-8zm-328 32h-16v-16h16zm0-56h16v24h-16zm32 56h-16v-16h16zm0-56h16v24h-16zm32 56h-16v-16h16zm16-32h-16v-24h16zm64 32h-16v-16h16zm32 0h-16v-16h16zm56-56h16v24h-16zm32 56h-16v-16h16zm0-56h16v24h-16zm32 56h-16v-16h16zm0-56h16v24h-16zm32 56h-16v-16h16z" fill="url(#linear-gradient-13)"/></g><path d="m421.524 352c-49.532-17.285-95.246-43.272-140.654-80h-.87v-.7q-12-9.747-24-20.506-12.007 10.766-24 20.506v.7h-.87c-45.408 36.729-91.117 62.715-140.654 80h77.524v-8h48v8h16v-8h48v8h16v-8h48v8zm-205.524-24h-16v-24h16zm32 0h-16v-24h16zm0-56h16v16h-16zm32 56h-16v-24h16zm32 0h-16v-24h16z" fill="url(#linear-gradient-14)"/><path d="m432 216a8.009 8.009 0 0 1 -8 8h-336a8.009 8.009 0 0 1 -8-8h-16a24.027 24.027 0 0 0 24 24h8v16h129.422q11.688-9.638 23.386-20.274l1.812-1.646a8 8 0 0 1 10.762 0l1.811 1.647q11.707 10.642 23.384 20.273h129.423v-16h8a24.027 24.027 0 0 0 24-24zm-280 32h-16v-16h16zm32 0h-16v-16h16zm32 0h-16v-16h16zm96 0h-16v-16h16zm32 0h-16v-16h16zm32 0h-16v-16h16z" fill="url(#linear-gradient-15)"/><path d="m256 107.974a339.194 339.194 0 0 1 -103.152 76.026h206.3a339.162 339.162 0 0 1 -103.148-76.026zm-24 60.026h-16v-16h16zm32 0h-16v-16h16zm16 0v-16h16v16z" fill="url(#linear-gradient-16)"/><path d="m220.869 120h-76.869a8.009 8.009 0 0 1 -8-8h-16a24.027 24.027 0 0 0 24 24h8v30.6a323.533 323.533 0 0 0 68.869-46.6zm-60.869 8h16v16h-16z" fill="url(#linear-gradient-17)"/><path d="m376 112a8.009 8.009 0 0 1 -8 8h-76.869a323.533 323.533 0 0 0 68.869 46.6v-30.6h8a24.027 24.027 0 0 0 24-24zm-24 32h-16v-16h16z" fill="url(#linear-gradient-18)"/></g></g></g></svg>