<svg height="368pt" viewBox="0 -8 368 368" width="368pt" xmlns="http://www.w3.org/2000/svg"><path d="m272 80v17.457031l-176-1.457031v-16l88-80zm0 0" fill="#b94137"/><path d="m56 88c-12.851562.046875-24.605469-7.222656-30.3125-18.734375l-.847656-1.691406c-1.976563-3.953125-.371094-8.757813 3.585937-10.734375 3.953125-1.976563 8.757813-.371094 10.734375 3.585937l.839844 1.6875c3.011719 6.074219 9.21875 9.910157 16 9.886719 4.417969 0 8 3.582031 8 8s-3.582031 8-8 8zm0 0" fill="#b94137"/><path d="m304 88c-4.417969 0-8-3.582031-8-8s3.582031-8 8-8c6.78125.023438 12.988281-3.8125 16-9.886719l.800781-1.6875c1.972657-3.957031 6.78125-5.5625 10.734375-3.585937 3.957032 1.976562 5.558594 6.78125 3.585938 10.734375l-.847656 1.691406c-5.699219 11.5-17.4375 18.765625-30.273438 18.734375zm0 0" fill="#b94137"/><path d="m296 320h-224v-184h216v141.335938l8 2.664062zm0 0" fill="#b94137"/><path d="m104 176h32v104h-32zm0 0" fill="#dc4d41"/><path d="m224 176h32v136h-32zm0 0" fill="#dc4d41"/><path d="m256 176h-152l1.945312-7.761719c3.558594-14.242187 16.355469-24.234375 31.039063-24.238281h86.03125c14.683594.003906 27.480469 9.996094 31.039063 24.238281zm0 0" fill="#f55648"/><path d="m136 176h96v104h-96zm0 0" fill="#a83b32"/><path d="m152 192h64v88h-64zm0 0" fill="#8f322b"/><path d="m181.265625 214.335938c-18.832031.027343-37.316406-5.066407-53.472656-14.734376l-27.914063-16.746093c-2.503906-1.445313-4.035156-4.128907-4.003906-7.023438.035156-2.890625 1.625-5.539062 4.164062-6.925781 2.539063-1.386719 5.628907-1.296875 8.082032.238281l27.878906 16.734375c29.183594 17.402344 65.761719 16.535156 94.089844-2.230468l21.445312-14.304688c3.675782-2.453125 8.644532-1.460938 11.097656 2.214844 2.453126 3.675781 1.460938 8.644531-2.21875 11.097656l-21.429687 14.304688c-17.105469 11.355468-37.1875 17.402343-57.71875 17.375zm0 0" fill="#f7ba61"/><path d="m368 144h-368v-24l13.214844-5.289062c17.445312-6.976563 32.363281-19.078126 42.785156-34.710938h256c10.421875 15.632812 25.339844 27.734375 42.785156 34.710938l13.214844 5.289062zm0 0" fill="#746250"/><path d="m144 80 40-40 40 40zm0 0" fill="#8f322b"/><path d="m168 80h32l-16-16zm0 0" fill="#a83b32"/><path d="m172.691406 219.324219 11.3125-11.3125 11.3125 11.3125-11.3125 11.316406zm0 0" fill="#d9d9d9"/><path d="m172.691406 235.328125 11.316406-11.316406 11.3125 11.316406-11.3125 11.3125zm0 0" fill="#cdcdcd"/><path d="m172.6875 251.328125 11.3125-11.3125 11.3125 11.3125-11.3125 11.316406zm0 0" fill="#d9d9d9"/><path d="m152 120h48v32h-48zm0 0" fill="#dc4d41"/><path d="m248 112c-2.121094 0-4.15625-.84375-5.65625-2.34375l-58.34375-58.34375-58.34375 58.34375c-3.140625 3.03125-8.128906 2.988281-11.214844-.097656-3.085937-3.085938-3.128906-8.074219-.097656-11.214844l64-64c3.125-3.121094 8.1875-3.121094 11.3125 0l64 64c2.285156 2.289062 2.972656 5.730469 1.734375 8.71875s-4.15625 4.9375-7.390625 4.9375zm0 0" fill="#dc4d41"/><path d="m120 280h128.664062v24h-128.664062zm0 0" fill="#d9d9d9"/><path d="m112 272h-96c-4.417969 0-8 3.582031-8 8v40c0 4.417969 3.582031 8 8 8s8-3.582031 8-8v-32h16v32c0 4.417969 3.582031 8 8 8s8-3.582031 8-8v-32h16v32c0 4.417969 3.582031 8 8 8s8-3.582031 8-8v-32h16v32c0 4.417969 3.582031 8 8 8s8-3.582031 8-8v-40c0-4.417969-3.582031-8-8-8zm0 0" fill="#8d7761"/><path d="m352 272h-96c-4.417969 0-8 3.582031-8 8v40c0 4.417969 3.582031 8 8 8s8-3.582031 8-8v-32h16v32c0 4.417969 3.582031 8 8 8s8-3.582031 8-8v-32h16v32c0 4.417969 3.582031 8 8 8s8-3.582031 8-8v-32h16v32c0 4.417969 3.582031 8 8 8s8-3.582031 8-8v-40c0-4.417969-3.582031-8-8-8zm0 0" fill="#8d7761"/><path d="m248 312h112v40h-112zm0 0" fill="#a8a8a8"/><path d="m8 312h104v40h-104zm0 0" fill="#a8a8a8"/><path d="m112 304h144v24h-144zm0 0" fill="#cdcdcd"/><path d="m104 328h168v24h-168zm0 0" fill="#b9b9b9"/><g fill="#746250"><path d="m8 288h16v8h-16zm0 0"/><path d="m40 288h16v8h-16zm0 0"/><path d="m72 288h16v8h-16zm0 0"/><path d="m104 288h16v8h-16zm0 0"/><path d="m248 288h16v8h-16zm0 0"/><path d="m280 288h16v8h-16zm0 0"/><path d="m312 288h16v8h-16zm0 0"/><path d="m344 288h16v8h-16zm0 0"/></g><path d="m160 112h48v32h-48zm0 0" fill="#a8a8a8"/><path d="m152 120h8v24h-8zm0 0" fill="#625243"/></svg>