<svg height="512pt" viewBox="0 -93 512 512" width="512pt" xmlns="http://www.w3.org/2000/svg"><path d="m477.613281 224.238281-73.289062 83.53125-6.082031 6.929688c-5.890626 6.722656-14.398438 10.578125-23.335938 10.578125h-237.8125c-8.9375 0-17.445312-3.855469-23.335938-10.578125l-79.371093-90.460938zm0 0" fill="#4b5055"/><path d="m477.613281 224.238281-73.289062 83.53125h-225.921875c-8.9375 0-17.433594-3.84375-23.335938-10.566406l-64.015625-72.964844zm0 0" fill="#5a5f64"/><path d="m266.457031 204.660156c-3.351562.421875-6.773437.628906-10.238281.628906-48.273438 0-86.234375-41.019531-83.039062-88.390624 2.667968-43.535157 38.832031-78.027344 83.039062-78.027344 3.464844 0 6.886719.210937 10.25.617187 39.4375 4.855469 70.339844 37.289063 72.796875 77.410157 2.941406 43.59375-29.167969 82.414062-72.808594 87.761718zm0 0" fill="#ffcd71"/><path d="m266.457031 204.660156c-43.570312-5.339844-75.742187-44.101562-72.796875-87.761718 2.460938-40.121094 33.371094-72.566407 72.808594-77.410157 39.4375 4.855469 70.339844 37.289063 72.796875 77.410157 2.941406 43.59375-29.167969 82.414062-72.808594 87.761718zm0 0" fill="#ffd993"/><path d="m339.265625 116.898438c-13.339844 5.753906-16.898437 21.234374-36.035156 21.234374-23.507813 0-23.507813-23.355468-47.003907-23.355468-23.503906 0-23.503906 23.355468-47.011718 23.355468-19.136719 0-22.695313-15.480468-36.035156-21.234374 2.667968-43.535157 38.832031-78.027344 83.039062-78.027344 44.214844 0 80.378906 34.492187 83.046875 78.027344zm0 0" fill="#c0694e"/><path d="m266.425781 39.488281c-3.351562-.40625-6.753906-.617187-10.207031-.617187-44.207031 0-80.371094 34.492187-83.039062 78.027344 8.886718 3.832031 13.433593 11.992187 21.144531 17.003906-6.597657-46.675782 26.464843-88.78125 72.101562-94.414063zm0 0" fill="#954c35"/><path d="m432.929688 204.660156c-3.351563.421875-6.773438.628906-10.238282.628906-48.273437 0-86.234375-41.019531-83.039062-88.390624 2.890625-47.164063 44.96875-83.300782 93.289062-77.410157 39.4375 4.855469 70.339844 37.289063 72.796875 77.410157 2.941407 43.59375-29.167969 82.414062-72.808593 87.761718zm0 0" fill="#ffcd71"/><path d="m432.929688 204.660156c-43.570313-5.339844-75.742188-44.101562-72.796876-87.761718 2.457032-40.121094 33.371094-72.566407 72.808594-77.410157 39.4375 4.855469 70.339844 37.289063 72.796875 77.410157 2.941407 43.59375-29.167969 82.414062-72.808593 87.761718zm0 0" fill="#ffd993"/><path d="m505.738281 116.898438c-13.339843 5.753906-16.902343 21.234374-36.035156 21.234374-23.507813 0-23.507813-23.355468-47.003906-23.355468-23.503907 0-23.503907 23.355468-47.011719 23.355468-19.136719 0-22.695312-15.480468-36.035156-21.234374 2.667968-43.535157 38.832031-78.027344 83.039062-78.027344 44.214844 0 80.378906 34.492187 83.046875 78.027344zm0 0" fill="#c0694e"/><path d="m432.898438 39.488281c-47.957032-5.863281-90.335938 29.953125-93.246094 77.410157 8.886718 3.832031 13.433594 11.992187 21.144531 17.003906-6.597656-46.675782 26.464844-88.78125 72.101563-94.414063zm0 0" fill="#954c35"/><path d="m99.808594 204.660156c-3.347656.421875-6.773438.628906-10.238282.628906-48.273437 0-86.234374-41.019531-83.039062-88.390624 2.667969-43.535157 38.832031-78.027344 83.039062-78.027344 3.464844 0 6.890626.210937 10.25.617187 39.4375 4.855469 70.339844 37.289063 72.796876 77.410157 2.941406 43.59375-29.167969 82.414062-72.808594 87.761718zm0 0" fill="#ffcd71"/><path d="m99.808594 204.660156c-43.570313-5.339844-75.742188-44.101562-72.792969-87.761718 2.457031-40.121094 33.367187-72.566407 72.804687-77.410157 39.4375 4.855469 70.339844 37.289063 72.796876 77.410157 2.941406 43.59375-29.167969 82.414062-72.808594 87.761718zm0 0" fill="#ffd993"/><path d="m172.617188 116.898438c-13.339844 5.753906-16.898438 21.234374-36.035157 21.234374-23.507812 0-23.507812-23.355468-47.003906-23.355468-23.503906 0-23.503906 23.355468-47.007813 23.355468-19.136718 0-22.699218-15.480468-36.039062-21.234374 2.667969-43.535157 38.832031-78.027344 83.039062-78.027344 44.21875 0 80.378907 34.492187 83.046876 78.027344zm0 0" fill="#c0694e"/><g fill="#ffb52d"><path d="m73.304688 57.894531-22.058594 13.652344c-3.699219 2.292969-4.839844 7.148437-2.550782 10.84375 1.488282 2.410156 4.066407 3.734375 6.703126 3.734375 1.417968 0 2.847656-.382812 4.140624-1.179688l22.054688-13.65625c3.699219-2.289062 4.84375-7.144531 2.554688-10.84375-2.292969-3.699218-7.148438-4.839843-10.84375-2.550781zm0 0"/><path d="m156.242188 30.59375c-13.058594 34.828125-31.417969 46.613281-43.644532 50.527344-4.945312 1.585937-10.003906-2.066406-10.003906-7.257813v-.433593c0-3.351563 2.207031-6.261719 5.398438-7.296876 8.246093-2.679687 22.453124-11.605468 33.503906-41.0625 1.523437-4.074218 6.058594-6.144531 10.136718-4.613281 4.074219 1.523438 6.144532 6.0625 4.609376 10.136719zm0 0"/><path d="m129.492188 87.652344c-2.929688-3.21875-7.910157-3.453125-11.128907-.53125-3.21875 2.925781-3.457031 7.910156-.53125 11.128906l10.503907 11.550781c1.554687 1.710938 3.691406 2.582031 5.832031 2.582031 1.890625 0 3.785156-.679687 5.296875-2.050781 3.21875-2.925781 3.457031-7.90625.53125-11.128906zm0 0"/><path d="m235.039062 68.460938c-18.109374-11.589844-18.714843-47.074219-17.417968-59.773438.449218-4.324219-2.691406-8.195312-7.019532-8.6445312-4.335937-.4453128-8.199218 2.6914062-8.648437 7.0195312-.238281 2.253906-5.410156 55.46875 24.59375 74.667969 1.316406.84375 2.785156 1.246093 4.238281 1.246093 7.832032-.003906 10.878906-10.277343 4.253906-14.515624zm0 0"/><path d="m316.820312 24.523438c-4.332031-.222657-8.054687 3.09375-8.292968 7.441406-1.167969 21.664062-37.527344 28.695312-37.894532 28.761718-4.273437.792969-7.101562 4.890626-6.316406 9.167969.785156 4.292969 4.90625 7.109375 9.167969 6.328125 1.996094-.367187 48.9375-9.359375 50.777344-43.410156.234375-4.34375-3.097657-8.054688-7.441407-8.289062zm0 0"/><path d="m303.050781 92.25-17.828125-4.4375c-4.222656-1.050781-8.496094 1.519531-9.546875 5.742188-1.050781 4.222656 1.519531 8.496093 5.742188 9.546874l17.828125 4.4375c.640625.160157 1.28125.234376 1.910156.234376 3.53125 0 6.746094-2.390626 7.636719-5.972657 1.050781-4.226562-1.519531-8.5-5.742188-9.550781zm0 0"/><path d="m481.433594 10.917969c-1.339844-4.136719-5.777344-6.40625-9.921875-5.070313-38.101563 12.328125-33.6875 64.332032-33.480469 66.539063.382812 4.082031 3.8125 7.136719 7.832031 7.136719.242188 0 .484375-.011719.730469-.03125 4.328125-.398438 7.515625-4.230469 7.125-8.558594-.039062-.417969-3.445312-41.65625 22.644531-50.09375 4.136719-1.339844 6.40625-5.78125 5.070313-9.921875zm0 0"/><path d="m344.160156 34.738281c-4.304687.613281-7.296875 4.605469-6.683594 8.910157.613282 4.308593 4.617188 7.285156 8.914063 6.683593 24.046875-3.441406 42.570313 23.621094 42.753906 23.894531 1.519531 2.269532 4.011719 3.496094 6.550781 3.496094 1.503907 0 3.019532-.429687 4.363282-1.324218 3.617187-2.414063 4.597656-7.304688 2.183594-10.925782-.96875-1.453125-24.144532-35.589844-58.082032-30.734375zm0 0"/><path d="m462.402344 86.527344c-10.054688 10.769531-34.03125-2.285156-34.457032-2.519532-3.769531-2.152343-8.578124-.839843-10.738281 2.933594-2.15625 3.777344-.84375 8.589844 2.933594 10.746094.929687.535156 15.675781 8.808594 31.007813 8.808594 8.070312 0 16.304687-2.292969 22.769531-9.21875 2.96875-3.183594 2.796875-8.164063-.382813-11.136719-3.179687-2.96875-8.164062-2.796875-11.132812.386719zm0 0"/><path d="m378.8125 84.082031c-4.316406-.53125-8.253906 2.523438-8.792969 6.839844l-2.101562 16.804687c-.539063 4.316407 2.523437 8.253907 6.839843 8.796876.332032.039062.660157.0625.988282.0625 3.914062 0 7.304687-2.917969 7.804687-6.902344l2.101563-16.804688c.539062-4.320312-2.523438-8.257812-6.839844-8.796875zm0 0"/></g><path d="m99.777344 39.488281c-3.347656-.40625-6.753906-.617187-10.207032-.617187-44.207031 0-80.371093 34.492187-83.039062 78.027344 8.886719 3.832031 13.433594 11.992187 21.144531 17.003906-6.59375-46.675782 26.46875-88.78125 72.101563-94.414063zm0 0" fill="#954c35"/><path d="m512 191.113281v43.597657c0 7.527343-6.113281 13.640624-13.652344 13.640624h-484.695312c-7.539063 0-13.652344-6.113281-13.652344-13.640624v-43.597657c0-7.542969 6.113281-13.644531 13.652344-13.644531h484.695312c7.539063 0 13.652344 6.101562 13.652344 13.644531zm0 0" fill="#f44545"/><path d="m512 191.113281v33.441407h-461.941406c-7.53125 0-13.644532-6.113282-13.644532-13.65625v-33.429688h461.933594c7.539063 0 13.652344 6.101562 13.652344 13.644531zm0 0" fill="#fb5858"/></svg>