<svg id="Flat" height="512" viewBox="0 0 512 512" width="512" xmlns="http://www.w3.org/2000/svg"><g id="_08_copy_4" data-name="08 copy 4"><path d="m415.357 375.617-8.494-13.559-3.216 2.014c-25.275 15.834-61.966 15.834-87.242 0l-3.216-2.015-8.489 13.56 3.216 2.015a97.183 97.183 0 0 0 44.084 14.109v24.259h16v-24.255a97.207 97.207 0 0 0 44.142-14.114z" fill="#b01d14"/><path d="m210.416 375.617-8.494-13.559-3.216 2.014c-25.276 15.834-61.967 15.834-87.243 0l-3.216-2.014-8.494 13.559 3.216 2.015a96.589 96.589 0 0 0 41.031 13.831v24.537h16v-24.068a97.78 97.78 0 0 0 47.2-14.3z" fill="#b01d14"/><g><path d="m224 408h64v40h-64z" fill="#fdbf44"/><path d="m232 216h48v48h-48z" fill="#fdbf44"/><path d="m40 168h432v40h-432z" fill="#fa5131"/><path d="m488 176h-464v-8l19.227-12.818a90 90 0 0 0 37.39-96.713l-.617-2.469 8-8h336l8 8-.617 2.469a90 90 0 0 0 37.39 96.713l19.227 12.818z" fill="#333"/><path d="m448 56h-384l-16-32h32l8 8h336l8-8h32z" fill="#fa5131"/><path d="m136 176h72v32h-72z" fill="#b01d14"/><path d="m304 176h72v32h-72z" fill="#b01d14"/><rect fill="#fa5131" height="160" rx="40" width="128" x="192" y="256"/><circle cx="256" cy="336" fill="#fdbf44" r="32"/><path d="m208 176h96v48h-96z" fill="#5c5c5c"/><path d="m64 200h48v288h-48z" fill="#fa5131"/><path d="m120 488h-64v-24l8-16h48l8 16z" fill="#fdbf44"/><path d="m32 480h112v16h-112z" fill="#fa5131"/><g fill="#fdbf44"><path d="m120 208h-64v16l8 16h48l8-16z"/><path d="m80 272h16v24h-16z"/><path d="m80 408h16v16h-16z"/></g><path d="m400 200h48v288h-48z" fill="#fa5131"/><path d="m456 488h-64v-24l8-16h48l8 16z" fill="#fdbf44"/><path d="m368 480h112v16h-112z" fill="#fa5131"/><path d="m456 208h-64v16l8 16h48l8-16z" fill="#fdbf44"/><path d="m416 272h16v24h-16z" fill="#fdbf44"/><path d="m416 408h16v16h-16z" fill="#fdbf44"/><path d="m376 136h40v16h-40z" fill="#5c5c5c"/><path d="m344 136h16v16h-16z" fill="#5c5c5c"/></g></g></svg>